<svg width="24" height="24" viewBox="0 0 24 24" fill="none" xmlns="http://www.w3.org/2000/svg">
<path fill-rule="evenodd" clip-rule="evenodd" d="M16 12.0001C16 12.2281 15.923 12.4551 15.768 12.6401L10.768 18.6401C10.415 19.0641 9.78398 19.1221 9.35998 18.7681C8.93598 18.4151 8.87898 17.7851 9.23198 17.3601L13.708 11.9891L9.39298 6.62709C9.04698 6.19709 9.11498 5.56709 9.54498 5.22109C9.97498 4.87509 10.604 4.94309 10.951 5.37309L15.779 11.3731C15.926 11.5561 16 11.7781 16 12.0001Z" fill="#231F20"/>
<mask id="mask0_181_27723" style="mask-type:luminance" maskUnits="userSpaceOnUse" x="9" y="5" width="7" height="14">
<path fill-rule="evenodd" clip-rule="evenodd" d="M16 12.0001C16 12.2281 15.923 12.4551 15.768 12.6401L10.768 18.6401C10.415 19.0641 9.78398 19.1221 9.35998 18.7681C8.93598 18.4151 8.87898 17.7851 9.23198 17.3601L13.708 11.9891L9.39298 6.62709C9.04698 6.19709 9.11498 5.56709 9.54498 5.22109C9.97498 4.87509 10.604 4.94309 10.951 5.37309L15.779 11.3731C15.926 11.5561 16 11.7781 16 12.0001Z" fill="white"/>
</mask>
<g mask="url(#mask0_181_27723)">
<rect y="24" width="24" height="24" transform="rotate(-90 0 24)" fill="#8F9BB3"/>
</g>
</svg>
