<svg width="24" height="24" viewBox="0 0 24 24" fill="none" xmlns="http://www.w3.org/2000/svg">
<path fill-rule="evenodd" clip-rule="evenodd" d="M10.5 17.0002C10.244 17.0002 9.98801 16.9022 9.79301 16.7072C9.40201 16.3162 9.40201 15.6842 9.79301 15.2932L13.098 11.9882L9.91801 8.69525C9.53501 8.29725 9.54601 7.66425 9.94301 7.28125C10.341 6.89825 10.974 6.90925 11.357 7.30525L15.219 11.3052C15.598 11.6982 15.593 12.3212 15.207 12.7072L11.207 16.7072C11.012 16.9022 10.756 17.0002 10.5 17.0002Z" fill="#8F9BB3"/>
<mask id="mask0_82_21106" style="mask-type:luminance" maskUnits="userSpaceOnUse" x="9" y="7" width="7" height="10">
<path fill-rule="evenodd" clip-rule="evenodd" d="M10.5 17.0002C10.244 17.0002 9.98801 16.9022 9.79301 16.7072C9.40201 16.3162 9.40201 15.6842 9.79301 15.2932L13.098 11.9882L9.91801 8.69525C9.53501 8.29725 9.54601 7.66425 9.94301 7.28125C10.341 6.89825 10.974 6.90925 11.357 7.30525L15.219 11.3052C15.598 11.6982 15.593 12.3212 15.207 12.7072L11.207 16.7072C11.012 16.9022 10.756 17.0002 10.5 17.0002Z" fill="white"/>
</mask>
<g mask="url(#mask0_82_21106)">
<rect width="24" height="24" fill="#8F9BB3"/>
</g>
</svg>
