<svg width="24" height="24" viewBox="0 0 24 24" xmlns="http://www.w3.org/2000/svg">
    <g id="Icon/Outline/bell">
        <path id="Mask" fill-rule="evenodd" clip-rule="evenodd"
              d="M5.51436 16L6.69436 14.818C7.07236 14.44 7.28036 13.938 7.28036 13.404V8.727C7.28036 7.37 7.87036 6.073 8.90036 5.171C9.93836 4.261 11.2604 3.861 12.6374 4.042C14.9644 4.351 16.7194 6.455 16.7194 8.937V13.404C16.7194 13.938 16.9274 14.44 17.3044 14.817L18.4854 16H5.51436ZM13.9994 18.341C13.9994 19.24 13.0834 20 11.9994 20C10.9154 20 9.99936 19.24 9.99936 18.341V18H13.9994V18.341ZM20.5204 15.208L18.7194 13.404V8.937C18.7194 5.456 16.2174 2.499 12.8994 2.06C10.9774 1.804 9.03736 2.391 7.58236 3.667C6.11836 4.949 5.28036 6.793 5.28036 8.727L5.27936 13.404L3.47836 15.208C3.00936 15.678 2.87036 16.377 3.12436 16.99C3.37936 17.604 3.97236 18 4.63636 18H7.99936V18.341C7.99936 20.359 9.79336 22 11.9994 22C14.2054 22 15.9994 20.359 15.9994 18.341V18H19.3624C20.0264 18 20.6184 17.604 20.8724 16.991C21.1274 16.377 20.9894 15.677 20.5204 15.208Z"
        />
        <mask id="mask0_181_16561" style="mask-type:luminance" maskUnits="userSpaceOnUse" x="2" y="2" width="19"
              height="20">
            <path id="Mask_2" fill-rule="evenodd" clip-rule="evenodd"
                  d="M5.51436 16L6.69436 14.818C7.07236 14.44 7.28036 13.938 7.28036 13.404V8.727C7.28036 7.37 7.87036 6.073 8.90036 5.171C9.93836 4.261 11.2604 3.861 12.6374 4.042C14.9644 4.351 16.7194 6.455 16.7194 8.937V13.404C16.7194 13.938 16.9274 14.44 17.3044 14.817L18.4854 16H5.51436ZM13.9994 18.341C13.9994 19.24 13.0834 20 11.9994 20C10.9154 20 9.99936 19.24 9.99936 18.341V18H13.9994V18.341ZM20.5204 15.208L18.7194 13.404V8.937C18.7194 5.456 16.2174 2.499 12.8994 2.06C10.9774 1.804 9.03736 2.391 7.58236 3.667C6.11836 4.949 5.28036 6.793 5.28036 8.727L5.27936 13.404L3.47836 15.208C3.00936 15.678 2.87036 16.377 3.12436 16.99C3.37936 17.604 3.97236 18 4.63636 18H7.99936V18.341C7.99936 20.359 9.79336 22 11.9994 22C14.2054 22 15.9994 20.359 15.9994 18.341V18H19.3624C20.0264 18 20.6184 17.604 20.8724 16.991C21.1274 16.377 20.9894 15.677 20.5204 15.208Z"
            />
        </mask>
        <g mask="url(#mask0_181_16561)">
            <g id="&#240;&#159;&#142;&#168; Color">
                <rect id="Base" width="24" height="24"/>
            </g>
        </g>
    </g>
</svg>
