<svg width="14" height="13" viewBox="0 0 14 13" fill="none" xmlns="http://www.w3.org/2000/svg">
<path fill-rule="evenodd" clip-rule="evenodd" d="M4.29167 8.66683C4.29167 8.36891 4.53542 8.12516 4.83333 8.12516C5.13125 8.12516 5.375 8.36891 5.375 8.66683C5.375 8.96475 5.13125 9.2085 4.83333 9.2085C4.53542 9.2085 4.29167 8.96475 4.29167 8.66683ZM7 8.12516H9.16667C9.46458 8.12516 9.70833 8.36891 9.70833 8.66683C9.70833 8.96475 9.46458 9.2085 9.16667 9.2085H7C6.70208 9.2085 6.45833 8.96475 6.45833 8.66683C6.45833 8.36891 6.70208 8.12516 7 8.12516ZM10.25 10.8335H3.75C3.45154 10.8335 3.20833 10.5903 3.20833 10.2918V7.04183H10.7917V10.2918C10.7917 10.5903 10.5485 10.8335 10.25 10.8335ZM3.75 3.25016H4.29167V3.79183C4.29167 4.08975 4.53542 4.3335 4.83333 4.3335C5.13125 4.3335 5.375 4.08975 5.375 3.79183V3.25016H8.625V3.79183C8.625 4.08975 8.86875 4.3335 9.16667 4.3335C9.46458 4.3335 9.70833 4.08975 9.70833 3.79183V3.25016H10.25C10.5485 3.25016 10.7917 3.49337 10.7917 3.79183V5.9585H3.20833V3.79183C3.20833 3.49337 3.45154 3.25016 3.75 3.25016ZM10.25 2.16683H9.70833V1.62516C9.70833 1.32725 9.46458 1.0835 9.16667 1.0835C8.86875 1.0835 8.625 1.32725 8.625 1.62516V2.16683H5.375V1.62516C5.375 1.32725 5.13125 1.0835 4.83333 1.0835C4.53542 1.0835 4.29167 1.32725 4.29167 1.62516V2.16683H3.75C2.85408 2.16683 2.125 2.89591 2.125 3.79183V10.2918C2.125 11.1877 2.85408 11.9168 3.75 11.9168H10.25C11.1459 11.9168 11.875 11.1877 11.875 10.2918V3.79183C11.875 2.89591 11.1459 2.16683 10.25 2.16683Z" fill="#8F9BB3"/>
<mask id="mask0_238_7473" style="mask-type:luminance" maskUnits="userSpaceOnUse" x="2" y="1" width="10" height="11">
<path fill-rule="evenodd" clip-rule="evenodd" d="M4.29167 8.66683C4.29167 8.36891 4.53542 8.12516 4.83333 8.12516C5.13125 8.12516 5.375 8.36891 5.375 8.66683C5.375 8.96475 5.13125 9.2085 4.83333 9.2085C4.53542 9.2085 4.29167 8.96475 4.29167 8.66683ZM7 8.12516H9.16667C9.46458 8.12516 9.70833 8.36891 9.70833 8.66683C9.70833 8.96475 9.46458 9.2085 9.16667 9.2085H7C6.70208 9.2085 6.45833 8.96475 6.45833 8.66683C6.45833 8.36891 6.70208 8.12516 7 8.12516ZM10.25 10.8335H3.75C3.45154 10.8335 3.20833 10.5903 3.20833 10.2918V7.04183H10.7917V10.2918C10.7917 10.5903 10.5485 10.8335 10.25 10.8335ZM3.75 3.25016H4.29167V3.79183C4.29167 4.08975 4.53542 4.3335 4.83333 4.3335C5.13125 4.3335 5.375 4.08975 5.375 3.79183V3.25016H8.625V3.79183C8.625 4.08975 8.86875 4.3335 9.16667 4.3335C9.46458 4.3335 9.70833 4.08975 9.70833 3.79183V3.25016H10.25C10.5485 3.25016 10.7917 3.49337 10.7917 3.79183V5.9585H3.20833V3.79183C3.20833 3.49337 3.45154 3.25016 3.75 3.25016ZM10.25 2.16683H9.70833V1.62516C9.70833 1.32725 9.46458 1.0835 9.16667 1.0835C8.86875 1.0835 8.625 1.32725 8.625 1.62516V2.16683H5.375V1.62516C5.375 1.32725 5.13125 1.0835 4.83333 1.0835C4.53542 1.0835 4.29167 1.32725 4.29167 1.62516V2.16683H3.75C2.85408 2.16683 2.125 2.89591 2.125 3.79183V10.2918C2.125 11.1877 2.85408 11.9168 3.75 11.9168H10.25C11.1459 11.9168 11.875 11.1877 11.875 10.2918V3.79183C11.875 2.89591 11.1459 2.16683 10.25 2.16683Z" fill="white"/>
</mask>
<g mask="url(#mask0_238_7473)">
<rect x="0.5" width="13" height="13" fill="#8F9BB3"/>
</g>
</svg>
