<svg width="19" height="18" viewBox="0 0 19 18" fill="none" xmlns="http://www.w3.org/2000/svg">
<path fill-rule="evenodd" clip-rule="evenodd" d="M7.89741 13.4999C7.69041 13.4999 7.49241 13.4144 7.35066 13.2637L3.70341 9.3794C3.41916 9.0779 3.43491 8.60315 3.73641 8.31965C4.03866 8.03615 4.51341 8.05115 4.79616 8.35265L7.88991 11.6459L14.1959 4.7444C14.4764 4.43765 14.9504 4.4174 15.2564 4.6964C15.5617 4.9754 15.5827 5.45015 15.3037 5.7554L8.45091 13.2554C8.31066 13.4099 8.11116 13.4984 7.90266 13.4999H7.89741Z" fill="white"/>
<mask id="mask0_1510_36292" style="mask-type:luminance" maskUnits="userSpaceOnUse" x="3" y="4" width="13" height="10">
<path fill-rule="evenodd" clip-rule="evenodd" d="M7.89741 13.4999C7.69041 13.4999 7.49241 13.4144 7.35066 13.2637L3.70341 9.3794C3.41916 9.0779 3.43491 8.60315 3.73641 8.31965C4.03866 8.03615 4.51341 8.05115 4.79616 8.35265L7.88991 11.6459L14.1959 4.7444C14.4764 4.43765 14.9504 4.4174 15.2564 4.6964C15.5617 4.9754 15.5827 5.45015 15.3037 5.7554L8.45091 13.2554C8.31066 13.4099 8.11116 13.4984 7.90266 13.4999H7.89741Z" fill="white"/>
</mask>
<g mask="url(#mask0_1510_36292)">
<rect x="0.5" width="18" height="18" fill="white"/>
</g>
</svg>
