<svg width="21" height="20" viewBox="0 0 21 20" fill="none" xmlns="http://www.w3.org/2000/svg">
<path fill-rule="evenodd" clip-rule="evenodd" d="M13.8488 8.89881L11.6029 6.65298L13.2263 5.02881L15.4713 7.27381L13.8488 8.89881ZM16.6696 6.11465L16.6688 6.11381L14.3871 3.83215C13.7696 3.21631 12.7088 3.18715 12.1238 3.77465L4.62709 11.2713C4.35542 11.5421 4.18709 11.9021 4.15209 12.283L3.83625 15.758C3.81459 16.0038 3.90209 16.2471 4.07709 16.4221C4.23459 16.5796 4.44709 16.6663 4.66625 16.6663C4.69209 16.6663 4.71709 16.6655 4.74209 16.663L8.21709 16.3471C8.59875 16.3121 8.95792 16.1446 9.22875 15.8738L16.7263 8.37631C17.3329 7.76798 17.3071 6.75298 16.6696 6.11465Z" fill="#C5CEE0"/>
<mask id="mask0_848_53779" style="mask-type:luminance" maskUnits="userSpaceOnUse" x="3" y="3" width="15" height="14">
<path fill-rule="evenodd" clip-rule="evenodd" d="M13.8488 8.89881L11.6029 6.65298L13.2263 5.02881L15.4713 7.27381L13.8488 8.89881ZM16.6696 6.11465L16.6688 6.11381L14.3871 3.83215C13.7696 3.21631 12.7088 3.18715 12.1238 3.77465L4.62709 11.2713C4.35542 11.5421 4.18709 11.9021 4.15209 12.283L3.83625 15.758C3.81459 16.0038 3.90209 16.2471 4.07709 16.4221C4.23459 16.5796 4.44709 16.6663 4.66625 16.6663C4.69209 16.6663 4.71709 16.6655 4.74209 16.663L8.21709 16.3471C8.59875 16.3121 8.95792 16.1446 9.22875 15.8738L16.7263 8.37631C17.3329 7.76798 17.3071 6.75298 16.6696 6.11465Z" fill="white"/>
</mask>
<g mask="url(#mask0_848_53779)">
<rect x="0.5" width="20" height="20" fill="#8F9BB3"/>
</g>
</svg>
