<svg width="22" height="22" viewBox="0 0 22 22" xmlns="http://www.w3.org/2000/svg">
    <path fill-rule="evenodd" clip-rule="evenodd"
          d="M18 12H14C12.897 12 12 12.897 12 14V18C12 19.103 12.897 20 14 20H18C19.103 20 20 19.103 20 18V14C20 12.897 19.103 12 18 12ZM8 12H4C2.897 12 2 12.897 2 14V18C2 19.103 2.897 20 4 20H8C9.103 20 10 19.103 10 18V14C10 12.897 9.103 12 8 12ZM18 2H14C12.897 2 12 2.897 12 4V8C12 9.103 12.897 10 14 10H18C19.103 10 20 9.103 20 8V4C20 2.897 19.103 2 18 2ZM8 2H4C2.897 2 2 2.897 2 4V8C2 9.103 2.897 10 4 10H8C9.103 10 10 9.103 10 8V4C10 2.897 9.103 2 8 2Z"/>
</svg>
