<svg width="10" height="12" viewBox="0 0 10 12" fill="none" xmlns="http://www.w3.org/2000/svg">
<path id="Mask" fill-rule="evenodd" clip-rule="evenodd" d="M6.14277 9.51351C5.75368 9.88509 5.2386 10.0869 4.69143 10.0834H4.69085C4.14427 10.0788 3.63268 9.86817 3.25002 9.49076C2.4631 8.71551 2.4736 7.46251 3.27393 6.69892L4.53568 5.49259C4.5876 5.44301 4.6576 5.41617 4.7311 5.41676V5.41676C4.80402 5.41734 4.87402 5.44534 4.92477 5.49551L6.16668 6.72109C6.9536 7.49692 6.9431 8.74934 6.14277 9.51351M7.80352 3.65859L5.12427 0.922172C4.90143 0.694089 4.52985 0.694089 4.29885 0.913422C4.17402 1.03242 4.10752 1.20101 4.1186 1.37309C4.12385 1.45476 4.12385 1.53526 4.12385 1.62159C4.12385 3.11317 3.74877 3.99517 3.54168 4.21334C3.4536 4.11651 3.29377 3.86217 3.15902 3.34242C3.10652 3.13942 2.94902 2.98017 2.7466 2.92534C2.54302 2.87167 2.32718 2.92942 2.1796 3.07817L1.6056 3.65742C-0.0924818 5.38817 -0.0901483 8.20801 1.61027 9.94109C2.43452 10.7846 3.53293 11.2489 4.70368 11.2501H4.70835C5.88027 11.2501 6.98102 10.7858 7.80877 9.94167C9.51035 8.20801 9.50743 5.38817 7.80352 3.65859" fill="#04C755"/>
</svg>
