<svg width="19" height="18" viewBox="0 0 19 18" fill="none" xmlns="http://www.w3.org/2000/svg">
<path fill-rule="evenodd" clip-rule="evenodd" d="M10.9693 13.5174C10.4691 13.9951 9.80681 14.2546 9.10331 14.2501H9.10256C8.39981 14.2441 7.74206 13.9734 7.25006 13.4881C6.23831 12.4914 6.25181 10.8804 7.28081 9.89861L8.90306 8.34761C8.96981 8.28386 9.05981 8.24936 9.15431 8.25011V8.25011C9.24806 8.25086 9.33806 8.28686 9.40331 8.35136L11.0001 9.92711C12.0118 10.9246 11.9983 12.5349 10.9693 13.5174M13.1046 5.98961L9.65981 2.47136C9.37331 2.17811 8.89556 2.17811 8.59856 2.46011C8.43806 2.61311 8.35256 2.82986 8.36681 3.05111C8.37356 3.15611 8.37356 3.25961 8.37356 3.37061C8.37356 5.28836 7.89131 6.42236 7.62506 6.70286C7.51181 6.57836 7.30631 6.25136 7.13306 5.58311C7.06556 5.32211 6.86306 5.11736 6.60281 5.04686C6.34106 4.97786 6.06356 5.05211 5.87381 5.24336L5.13581 5.98811C2.95256 8.21336 2.95556 11.8389 5.14181 14.0671C6.20156 15.1516 7.61381 15.7486 9.11906 15.7501H9.12506C10.6318 15.7501 12.0471 15.1531 13.1113 14.0679C15.2991 11.8389 15.2953 8.21336 13.1046 5.98961" fill="white"/>
<mask id="mask0_340_3550" style="mask-type:luminance" maskUnits="userSpaceOnUse" x="3" y="2" width="12" height="14">
<path fill-rule="evenodd" clip-rule="evenodd" d="M10.9693 13.5174C10.4691 13.9951 9.80681 14.2546 9.10331 14.2501H9.10256C8.39981 14.2441 7.74206 13.9734 7.25006 13.4881C6.23831 12.4914 6.25181 10.8804 7.28081 9.89861L8.90306 8.34761C8.96981 8.28386 9.05981 8.24936 9.15431 8.25011V8.25011C9.24806 8.25086 9.33806 8.28686 9.40331 8.35136L11.0001 9.92711C12.0118 10.9246 11.9983 12.5349 10.9693 13.5174M13.1046 5.98961L9.65981 2.47136C9.37331 2.17811 8.89556 2.17811 8.59856 2.46011C8.43806 2.61311 8.35256 2.82986 8.36681 3.05111C8.37356 3.15611 8.37356 3.25961 8.37356 3.37061C8.37356 5.28836 7.89131 6.42236 7.62506 6.70286C7.51181 6.57836 7.30631 6.25136 7.13306 5.58311C7.06556 5.32211 6.86306 5.11736 6.60281 5.04686C6.34106 4.97786 6.06356 5.05211 5.87381 5.24336L5.13581 5.98811C2.95256 8.21336 2.95556 11.8389 5.14181 14.0671C6.20156 15.1516 7.61381 15.7486 9.11906 15.7501H9.12506C10.6318 15.7501 12.0471 15.1531 13.1113 14.0679C15.2991 11.8389 15.2953 8.21336 13.1046 5.98961" fill="white"/>
</mask>
<g mask="url(#mask0_340_3550)">
<rect x="0.5" width="18" height="18" fill="white"/>
</g>
</svg>
