<svg width="20" height="20" viewBox="0 0 20 20" fill="none" xmlns="http://www.w3.org/2000/svg">
<path fill-rule="evenodd" clip-rule="evenodd" d="M16.0563 3.9C15.6713 3.62167 15.173 3.5425 14.7238 3.68917C14.2438 3.84583 13.6188 3.92833 12.9163 3.92833C11.9797 3.92833 11.1663 3.60917 10.3047 3.27167C9.33634 2.8925 8.33384 2.5 7.08301 2.5C4.67801 2.5 3.74634 3.29333 3.58301 3.45333C3.42384 3.60917 3.33301 3.82417 3.33301 4.04833V10V12.6192V16.6667C3.33301 17.1275 3.70634 17.5 4.16634 17.5C4.62717 17.5 4.99967 17.1275 4.99967 16.6667V13.085C5.32884 12.9392 5.97717 12.7383 7.08301 12.7383C8.01967 12.7383 8.83384 13.0575 9.69551 13.3958C10.6638 13.775 11.6655 14.1667 12.9163 14.1667C14.4238 14.1667 15.3522 13.8517 15.8672 13.5875C16.3605 13.3317 16.6663 12.8358 16.6663 12.2908V5.08833C16.6663 4.62167 16.4388 4.1775 16.0563 3.9" fill="#04C755"/>
<mask id="mask0_82_20531" style="mask-type:luminance" maskUnits="userSpaceOnUse" x="3" y="2" width="14" height="16">
<path fill-rule="evenodd" clip-rule="evenodd" d="M16.0563 3.9C15.6713 3.62167 15.173 3.5425 14.7238 3.68917C14.2438 3.84583 13.6188 3.92833 12.9163 3.92833C11.9797 3.92833 11.1663 3.60917 10.3047 3.27167C9.33634 2.8925 8.33384 2.5 7.08301 2.5C4.67801 2.5 3.74634 3.29333 3.58301 3.45333C3.42384 3.60917 3.33301 3.82417 3.33301 4.04833V10V12.6192V16.6667C3.33301 17.1275 3.70634 17.5 4.16634 17.5C4.62717 17.5 4.99967 17.1275 4.99967 16.6667V13.085C5.32884 12.9392 5.97717 12.7383 7.08301 12.7383C8.01967 12.7383 8.83384 13.0575 9.69551 13.3958C10.6638 13.775 11.6655 14.1667 12.9163 14.1667C14.4238 14.1667 15.3522 13.8517 15.8672 13.5875C16.3605 13.3317 16.6663 12.8358 16.6663 12.2908V5.08833C16.6663 4.62167 16.4388 4.1775 16.0563 3.9" fill="white"/>
</mask>
<g mask="url(#mask0_82_20531)">
<rect width="20" height="20" fill="#04C755"/>
</g>
</svg>
