<svg width="24" height="24" viewBox="0 0 24 24" xmlns="http://www.w3.org/2000/svg">
    <path fill-rule="evenodd" clip-rule="evenodd"
          d="M12.7148 2.30047L20.4238 10.1845C20.7898 10.5605 20.9998 11.0845 20.9998 11.6235V19.9995C20.9998 21.1025 20.1528 21.9995 19.1118 21.9995H15.9998V12.9995C15.9998 12.4475 15.5528 11.9995 14.9998 11.9995H8.99976C8.44676 11.9995 7.99976 12.4475 7.99976 12.9995V21.9995H4.88876C3.84776 21.9995 2.99976 21.1025 2.99976 19.9995V11.6235C2.99976 11.0845 3.20976 10.5605 3.57476 10.1855L11.2848 2.30047C11.6618 1.91547 12.3378 1.91547 12.7148 2.30047ZM14 20.9999H9.99996V13.9999H14V20.9999Z"
    />
    <mask id="mask0_587_32576" style="mask-type:luminance" maskUnits="userSpaceOnUse" x="2" y="2" width="19"
          height="20">
        <path fill-rule="evenodd" clip-rule="evenodd"
              d="M12.7148 2.30047L20.4238 10.1845C20.7898 10.5605 20.9998 11.0845 20.9998 11.6235V19.9995C20.9998 21.1025 20.1528 21.9995 19.1118 21.9995H15.9998V12.9995C15.9998 12.4475 15.5528 11.9995 14.9998 11.9995H8.99976C8.44676 11.9995 7.99976 12.4475 7.99976 12.9995V21.9995H4.88876C3.84776 21.9995 2.99976 21.1025 2.99976 19.9995V11.6235C2.99976 11.0845 3.20976 10.5605 3.57476 10.1855L11.2848 2.30047C11.6618 1.91547 12.3378 1.91547 12.7148 2.30047ZM14 20.9999H9.99996V13.9999H14V20.9999Z"
        />
    </mask>
    <g mask="url(#mask0_587_32576)">
        <rect width="24" height="24"/>
    </g>
</svg>
