<svg width="22" height="22" viewBox="0 0 22 22" xmlns="http://www.w3.org/2000/svg">
    <path fill-rule="evenodd" clip-rule="evenodd"
          d="M15.6165 20C14.3712 20.0006 13.6358 19.3548 13.6358 18V16.1446C13.6358 14.684 12.4517 13.5 10.9911 13.5C9.53051 13.5 8.34645 14.684 8.34645 16.1446V18C8.34645 19.3548 7.8689 20 6.33753 20H5.375C4.78718 20 3.81428 19.9762 2.8814 19.0732C2.01206 18.2316 2 17.1248 2 16.6V9.37013L2.00009 9.3614C2.00938 8.41513 2.46295 7.50035 3.30151 6.8628L8.34645 2.89278C9.87753 1.70402 12.0976 1.70117 13.63 2.89165L13.6358 2.8961L18.7085 6.86373C19.538 7.49603 19.9868 8.40996 19.9998 9.34112L20 9.35356V16.6C20 17.1248 19.9879 18.2316 19.1186 19.0732C18.1857 19.9762 17.2128 20 16.625 20L15.6165 20Z"
    />
</svg>
