<svg width="18" height="18" viewBox="0 0 18 18" fill="none" xmlns="http://www.w3.org/2000/svg">
<path d="M9.98795 10.0819C9.98795 10.4961 9.65216 10.8319 9.23795 10.8319C8.82374 10.8319 8.48795 10.4961 8.48795 10.0819V9.48665C8.48795 8.76885 8.91016 8.11179 9.57206 7.83546C9.93133 7.68547 10.167 7.33101 10.1589 6.93412C10.1488 6.44583 9.75286 6.0322 9.267 6.00195C8.71318 5.96747 8.25 6.40429 8.25 6.95452C8.25 7.36874 7.91421 7.70452 7.5 7.70452C7.08579 7.70452 6.75 7.36874 6.75 6.95452C6.75 5.54043 7.94174 4.41652 9.36022 4.50485C10.6256 4.58363 11.6325 5.63543 11.6586 6.90333C11.6794 7.92218 11.0729 8.83433 10.1499 9.21968C10.0557 9.259 9.98795 9.36451 9.98795 9.48665V10.0819Z" fill="#8F9BB3"/>
<path d="M8.48864 12.4432C8.48864 12.8574 8.82442 13.1932 9.23864 13.1932C9.65285 13.1932 9.98864 12.8574 9.98864 12.4432C9.98864 12.029 9.65285 11.6932 9.23864 11.6932C8.82442 11.6932 8.48864 12.029 8.48864 12.4432Z" fill="#8F9BB3"/>
<path fill-rule="evenodd" clip-rule="evenodd" d="M1.5 9C1.5 13.1421 4.85786 16.5 9 16.5C13.1421 16.5 16.5 13.1421 16.5 9C16.5 4.85786 13.1421 1.5 9 1.5C4.85786 1.5 1.5 4.85786 1.5 9ZM15 9C15 12.3137 12.3137 15 9 15C5.68629 15 3 12.3137 3 9C3 5.68629 5.68629 3 9 3C12.3137 3 15 5.68629 15 9Z" fill="#8F9BB3"/>
</svg>
