<svg width="20" height="20" viewBox="0 0 20 20" fill="none" xmlns="http://www.w3.org/2000/svg">
<path fill-rule="evenodd" clip-rule="evenodd" d="M10.0003 7.50008C9.54033 7.50008 9.16699 7.12675 9.16699 6.66675C9.16699 6.20675 9.54033 5.83342 10.0003 5.83342C10.4603 5.83342 10.8337 6.20675 10.8337 6.66675C10.8337 7.12675 10.4603 7.50008 10.0003 7.50008ZM10.8337 13.3334C10.8337 13.7934 10.4603 14.1667 10.0003 14.1667C9.54033 14.1667 9.16699 13.7934 9.16699 13.3334V9.16675C9.16699 8.70675 9.54033 8.33341 10.0003 8.33341C10.4603 8.33341 10.8337 8.70675 10.8337 9.16675V13.3334ZM10.0003 1.66675C5.39783 1.66675 1.66699 5.39758 1.66699 10.0001C1.66699 14.6026 5.39783 18.3334 10.0003 18.3334C14.602 18.3334 18.3337 14.6026 18.3337 10.0001C18.3337 5.39758 14.602 1.66675 10.0003 1.66675Z" fill="#231F20"/>
<mask id="mask0_604_42306" style="mask-type:luminance" maskUnits="userSpaceOnUse" x="1" y="1" width="18" height="18">
<path fill-rule="evenodd" clip-rule="evenodd" d="M10.0003 7.50008C9.54033 7.50008 9.16699 7.12675 9.16699 6.66675C9.16699 6.20675 9.54033 5.83342 10.0003 5.83342C10.4603 5.83342 10.8337 6.20675 10.8337 6.66675C10.8337 7.12675 10.4603 7.50008 10.0003 7.50008ZM10.8337 13.3334C10.8337 13.7934 10.4603 14.1667 10.0003 14.1667C9.54033 14.1667 9.16699 13.7934 9.16699 13.3334V9.16675C9.16699 8.70675 9.54033 8.33341 10.0003 8.33341C10.4603 8.33341 10.8337 8.70675 10.8337 9.16675V13.3334ZM10.0003 1.66675C5.39783 1.66675 1.66699 5.39758 1.66699 10.0001C1.66699 14.6026 5.39783 18.3334 10.0003 18.3334C14.602 18.3334 18.3337 14.6026 18.3337 10.0001C18.3337 5.39758 14.602 1.66675 10.0003 1.66675Z" fill="white"/>
</mask>
<g mask="url(#mask0_604_42306)">
<rect width="20" height="20" fill="#04C755"/>
</g>
</svg>
