<svg width="24" height="24" viewBox="0 0 24 24" fill="none" xmlns="http://www.w3.org/2000/svg">
<path fill-rule="evenodd" clip-rule="evenodd" d="M13.6668 22.0002C13.6458 22.0002 13.6258 21.9992 13.6058 21.9982C13.1538 21.9712 12.7768 21.6432 12.6868 21.1992L11.1488 13.6322C11.0688 13.2382 10.7618 12.9312 10.3678 12.8512L2.8008 11.3122C2.3568 11.2232 2.0288 10.8462 2.0018 10.3942C1.9748 9.94115 2.2538 9.52716 2.6838 9.38516L18.6838 4.05215C19.0428 3.93015 19.4388 4.02415 19.7068 4.29315C19.9748 4.56115 20.0678 4.95715 19.9488 5.31615L14.6148 21.3162C14.4788 21.7272 14.0948 22.0002 13.6668 22.0002Z" fill="#04C755"/>
<mask id="mask0_848_54003" style="mask-type:luminance" maskUnits="userSpaceOnUse" x="2" y="3" width="18" height="19">
<path fill-rule="evenodd" clip-rule="evenodd" d="M13.6668 22.0002C13.6458 22.0002 13.6258 21.9992 13.6058 21.9982C13.1538 21.9712 12.7768 21.6432 12.6868 21.1992L11.1488 13.6322C11.0688 13.2382 10.7618 12.9312 10.3678 12.8512L2.8008 11.3122C2.3568 11.2232 2.0288 10.8462 2.0018 10.3942C1.9748 9.94115 2.2538 9.52716 2.6838 9.38516L18.6838 4.05215C19.0428 3.93015 19.4388 4.02415 19.7068 4.29315C19.9748 4.56115 20.0678 4.95715 19.9488 5.31615L14.6148 21.3162C14.4788 21.7272 14.0948 22.0002 13.6668 22.0002Z" fill="white"/>
</mask>
<g mask="url(#mask0_848_54003)">
<rect width="24" height="24" fill="#04C755"/>
</g>
</svg>
