<svg width="24" height="24" viewBox="0 0 24 24" fill="none" xmlns="http://www.w3.org/2000/svg">
    <g id="paw">
        <g id="Group 9">
            <g id="Group 8">
                <g id="Group 7">
                    <path id="Vector 1177"
                          d="M12.0603 11.0024C10.3553 11.0024 6.51077 12.2943 5.0137 17.4767C4.88895 18.8442 5.56263 21.4498 9.25538 20.9315C9.92076 20.6077 11.4012 19.9815 12 20.0678"
                          stroke="#222B45" stroke-width="2" stroke-linecap="round" stroke-linejoin="round"/>
                    <path id="Vector 1178"
                          d="M18.9863 17.5163L19.9462 17.236L19.9732 17.3285L19.9821 17.4244L18.9863 17.5163ZM14.7446 20.934L14.6071 21.9245L14.4519 21.903L14.3108 21.835L14.7446 20.934ZM12.1413 21.0227C11.5945 21.1007 11.088 20.7208 11.01 20.174C10.932 19.6273 11.312 19.1208 11.8587 19.0428L12.1413 21.0227ZM12.125 10.0005C14.2761 10.0005 18.3251 11.6845 19.9462 17.236L18.0264 17.7966C16.6534 13.0948 13.3839 12.0005 12.125 12.0005V10.0005ZM19.9821 17.4244C20.0603 18.2731 19.9009 19.5457 19.0703 20.5587C18.1839 21.64 16.71 22.2164 14.6071 21.9245L14.8821 19.9435C16.472 20.1642 17.1813 19.7083 17.5237 19.2907C17.922 18.8049 18.037 18.1123 17.9905 17.6081L19.9821 17.4244ZM14.3108 21.835C13.99 21.6805 13.4854 21.449 12.9995 21.2687C12.7557 21.1783 12.5356 21.1079 12.3567 21.0654C12.151 21.0165 12.0977 21.0289 12.1413 21.0227L11.8587 19.0428C12.2017 18.9938 12.5579 19.0575 12.8191 19.1195C13.107 19.188 13.4108 19.2881 13.6952 19.3936C14.2655 19.6052 14.8338 19.8671 15.1785 20.033L14.3108 21.835Z"
                          fill="#222B45"/>
                </g>
                <path id="Ellipse 2029"
                      d="M5.51007 9.57557C5.51007 10.7111 4.70401 11.4856 3.88003 11.4856C3.05606 11.4856 2.25 10.7111 2.25 9.57557C2.25 8.44006 3.05606 7.66553 3.88003 7.66553C4.70401 7.66553 5.51007 8.44006 5.51007 9.57557Z"
                      fill="#222B45" stroke="#222B45" stroke-width="1.5"/>
                <path id="Ellipse 2030"
                      d="M10.5501 5.65564C10.5501 6.79115 9.74405 7.56568 8.92007 7.56568C8.0961 7.56568 7.29004 6.79115 7.29004 5.65564C7.29004 4.52014 8.0961 3.74561 8.92007 3.74561C9.74405 3.74561 10.5501 4.52014 10.5501 5.65564Z"
                      fill="#222B45" stroke="#222B45" stroke-width="1.5"/>
                <path id="Ellipse 2031"
                      d="M16.7093 5.65564C16.7093 6.79115 15.9032 7.56568 15.0793 7.56568C14.2553 7.56568 13.4492 6.79115 13.4492 5.65564C13.4492 4.52014 14.2553 3.74561 15.0793 3.74561C15.9032 3.74561 16.7093 4.52014 16.7093 5.65564Z"
                      fill="#222B45" stroke="#222B45" stroke-width="1.5"/>
                <path id="Ellipse 2032"
                      d="M21.7503 9.57557C21.7503 10.7111 20.9442 11.4856 20.1203 11.4856C19.2963 11.4856 18.4902 10.7111 18.4902 9.57557C18.4902 8.44006 19.2963 7.66553 20.1203 7.66553C20.9442 7.66553 21.7503 8.44006 21.7503 9.57557Z"
                      fill="#222B45" stroke="#222B45" stroke-width="1.5"/>
            </g>
        </g>
        <ellipse id="Ellipse 2033" cx="12" cy="15" rx="5" ry="4" fill="#222B45"/>
        <ellipse id="Ellipse 2034" cx="15" cy="17.5" rx="4" ry="3.5" fill="#222B45"/>
        <ellipse id="Ellipse 2035" cx="9" cy="17.5" rx="4" ry="3.5" fill="#222B45"/>
    </g>
</svg>
