<svg width="24" height="24" viewBox="0 0 24 24" fill="none" xmlns="http://www.w3.org/2000/svg">
    <g id="paw">
        <g id="Group 9">
            <g id="Group 8">
                <g id="Group 7">
                    <path id="Vector 1177"
                          d="M12.0603 11.0039C10.3553 11.0039 6.51077 12.2958 5.0137 17.4781C4.88895 18.8457 5.56263 21.4512 9.25538 20.933C9.92076 20.6091 11.4012 19.9829 12 20.0693"
                          stroke="#231F20" stroke-width="2" stroke-linecap="round" stroke-linejoin="round"/>
                    <path id="Vector 1178"
                          d="M18.9863 17.5177L19.9462 17.2374L19.9732 17.3299L19.9821 17.4259L18.9863 17.5177ZM14.7446 20.9355L14.6071 21.926L14.4519 21.9044L14.3108 21.8364L14.7446 20.9355ZM12.1413 21.0242C11.5945 21.1022 11.088 20.7222 11.01 20.1755C10.932 19.6287 11.312 19.1223 11.8587 19.0442L12.1413 21.0242ZM12.125 10.002C14.2761 10.002 18.3251 11.686 19.9462 17.2374L18.0264 17.798C16.6534 13.0963 13.3839 12.002 12.125 12.002V10.002ZM19.9821 17.4259C20.0603 18.2745 19.9009 19.5471 19.0703 20.5602C18.1839 21.6414 16.71 22.2179 14.6071 21.926L14.8821 19.945C16.472 20.1657 17.1813 19.7097 17.5237 19.2921C17.922 18.8064 18.037 18.1138 17.9905 17.6096L19.9821 17.4259ZM14.3108 21.8364C13.99 21.682 13.4854 21.4505 12.9995 21.2702C12.7557 21.1798 12.5356 21.1093 12.3567 21.0668C12.151 21.018 12.0977 21.0304 12.1413 21.0242L11.8587 19.0442C12.2017 18.9953 12.5579 19.059 12.8191 19.121C13.107 19.1894 13.4108 19.2896 13.6952 19.3951C14.2655 19.6067 14.8338 19.8685 15.1785 20.0345L14.3108 21.8364Z"
                          fill="#231F20"/>
                </g>
                <path id="Ellipse 2029"
                      d="M5.51007 9.57605C5.51007 10.7116 4.70401 11.4861 3.88003 11.4861C3.05606 11.4861 2.25 10.7116 2.25 9.57605C2.25 8.44055 3.05606 7.66602 3.88003 7.66602C4.70401 7.66602 5.51007 8.44055 5.51007 9.57605Z"
                      stroke="black" stroke-width="1.5"/>
                <path id="Ellipse 2030"
                      d="M10.5491 5.65613C10.5491 6.79164 9.74307 7.56617 8.9191 7.56617C8.09512 7.56617 7.28906 6.79164 7.28906 5.65613C7.28906 4.52062 8.09512 3.74609 8.9191 3.74609C9.74307 3.74609 10.5491 4.52062 10.5491 5.65613Z"
                      stroke="black" stroke-width="1.5"/>
                <path id="Ellipse 2031"
                      d="M16.7093 5.65613C16.7093 6.79164 15.9032 7.56617 15.0793 7.56617C14.2553 7.56617 13.4492 6.79164 13.4492 5.65613C13.4492 4.52062 14.2553 3.74609 15.0793 3.74609C15.9032 3.74609 16.7093 4.52062 16.7093 5.65613Z"
                      stroke="black" stroke-width="1.5"/>
                <path id="Ellipse 2032"
                      d="M21.7503 9.57605C21.7503 10.7116 20.9442 11.4861 20.1203 11.4861C19.2963 11.4861 18.4902 10.7116 18.4902 9.57605C18.4902 8.44055 19.2963 7.66602 20.1203 7.66602C20.9442 7.66602 21.7503 8.44055 21.7503 9.57605Z"
                      stroke="black" stroke-width="1.5"/>
            </g>
        </g>
    </g>
</svg>
