<svg width="22" height="22" viewBox="0 0 22 22" xmlns="http://www.w3.org/2000/svg">
    <path fill-rule="evenodd" clip-rule="evenodd"
          d="M18 16.4509L16 15.5529V5.54291L18 6.44091V16.4509ZM8 5.54291L10 6.44091V16.4509L8 15.5529V5.54291ZM19.41 4.88291L15.41 3.08491C15.395 3.07791 15.379 3.07691 15.364 3.07091C15.323 3.05491 15.282 3.04391 15.24 3.03291C15.201 3.02291 15.162 3.01391 15.122 3.00991C15.083 3.00491 15.044 3.00391 15.004 3.00391C14.96 3.00391 14.917 3.00491 14.873 3.00991C14.836 3.01391 14.801 3.02291 14.765 3.03191C14.721 3.04291 14.678 3.05491 14.635 3.07091C14.621 3.07691 14.604 3.07791 14.59 3.08491L11 4.69791L7.41 3.08491C7.395 3.07791 7.379 3.07691 7.364 3.07091C7.323 3.05491 7.282 3.04391 7.24 3.03291C7.201 3.02291 7.162 3.01391 7.122 3.00991C7.083 3.00491 7.044 3.00391 7.004 3.00391C6.96 3.00391 6.917 3.00491 6.873 3.00991C6.836 3.01391 6.801 3.02291 6.765 3.03191C6.721 3.04291 6.678 3.05491 6.635 3.07091C6.621 3.07691 6.604 3.07791 6.59 3.08491L2.59 4.88291C2.231 5.04391 2 5.40091 2 5.79491V17.9969C2 18.3359 2.172 18.6519 2.457 18.8369C2.621 18.9429 2.81 18.9969 3 18.9969C3.139 18.9969 3.279 18.9679 3.41 18.9089L7 17.2959L10.59 18.9089C10.605 18.9159 10.621 18.9129 10.637 18.9189C10.754 18.9659 10.875 18.9969 11 18.9969C11.125 18.9969 11.246 18.9659 11.363 18.9189C11.378 18.9129 11.396 18.9159 11.41 18.9089L15 17.2959L18.59 18.9089C18.721 18.9679 18.861 18.9969 19 18.9969C19.19 18.9969 19.379 18.9429 19.543 18.8369C19.828 18.6519 20 18.3359 20 17.9969V5.79491C20 5.40091 19.769 5.04391 19.41 4.88291Z"
    />
</svg>
