<svg width="20" height="20" viewBox="0 0 20 20" fill="none" xmlns="http://www.w3.org/2000/svg">
<mask id="mask0_5_6194" style="mask-type:luminance" maskUnits="userSpaceOnUse" x="1" y="1" width="18" height="18">
<path fill-rule="evenodd" clip-rule="evenodd" d="M8.99749 11.0108L10.4075 10.4408L11.0025 8.98913L9.59249 9.55913L8.99749 11.0108ZM13.2712 7.84996L11.8162 11.3983C11.7312 11.6066 11.5662 11.7708 11.3578 11.8558L7.84699 13.2733C7.74449 13.3141 7.63866 13.3333 7.53533 13.3333C7.30949 13.3333 7.09783 13.2358 6.94116 13.075C6.92616 13.0608 6.91033 13.0491 6.89616 13.035C6.88866 13.0258 6.88366 13.015 6.87699 13.0058C6.67866 12.7758 6.60533 12.4508 6.72866 12.15L8.18366 8.60163C8.26866 8.39329 8.43449 8.22913 8.64283 8.14496L12.1537 6.72663C12.482 6.59663 12.8412 6.68996 13.0695 6.93163C13.312 7.16163 13.4053 7.52163 13.2712 7.84996ZM10.0003 1.66663C5.40533 1.66663 1.66699 5.40496 1.66699 9.99996C1.66699 14.595 5.40533 18.3333 10.0003 18.3333C14.5953 18.3333 18.3337 14.595 18.3337 9.99996C18.3337 5.40496 14.5953 1.66663 10.0003 1.66663Z" fill="white"/>
</mask>
<g mask="url(#mask0_5_6194)">
<rect width="20" height="20" fill="#04C755"/>
</g>
</svg>
