<svg width="20" height="20" viewBox="0 0 20 20" fill="none" xmlns="http://www.w3.org/2000/svg">
<path fill-rule="evenodd" clip-rule="evenodd" d="M9.99998 3.33366C11.8383 3.33366 13.3333 4.82866 13.3333 6.66699C13.3333 8.50533 11.8383 10.0003 9.99998 10.0003C8.16165 10.0003 6.66665 8.50533 6.66665 6.66699C6.66665 4.82866 8.16165 3.33366 9.99998 3.33366M15.8075 17.2928L13.8833 9.81033C14.58 8.95033 15 7.85783 15 6.66699C15 3.90949 12.7575 1.66699 9.99998 1.66699C7.24248 1.66699 4.99998 3.90949 4.99998 6.66699C4.99998 7.85783 5.41998 8.95033 6.11665 9.81033L4.19248 17.2928C4.10915 17.6195 4.22915 17.9637 4.49832 18.1662C4.76748 18.3687 5.13165 18.387 5.42165 18.2187L9.86332 15.6112L14.5966 18.2295C14.7225 18.2995 14.8616 18.3337 15 18.3337C15.1808 18.3337 15.3608 18.2753 15.51 18.1595C15.7733 17.9562 15.89 17.6153 15.8075 17.2928" fill="#04C755"/>
<mask id="mask0_82_21096" style="mask-type:luminance" maskUnits="userSpaceOnUse" x="4" y="1" width="12" height="18">
<path fill-rule="evenodd" clip-rule="evenodd" d="M9.99998 3.33366C11.8383 3.33366 13.3333 4.82866 13.3333 6.66699C13.3333 8.50533 11.8383 10.0003 9.99998 10.0003C8.16165 10.0003 6.66665 8.50533 6.66665 6.66699C6.66665 4.82866 8.16165 3.33366 9.99998 3.33366M15.8075 17.2928L13.8833 9.81033C14.58 8.95033 15 7.85783 15 6.66699C15 3.90949 12.7575 1.66699 9.99998 1.66699C7.24248 1.66699 4.99998 3.90949 4.99998 6.66699C4.99998 7.85783 5.41998 8.95033 6.11665 9.81033L4.19248 17.2928C4.10915 17.6195 4.22915 17.9637 4.49832 18.1662C4.76748 18.3687 5.13165 18.387 5.42165 18.2187L9.86332 15.6112L14.5966 18.2295C14.7225 18.2995 14.8616 18.3337 15 18.3337C15.1808 18.3337 15.3608 18.2753 15.51 18.1595C15.7733 17.9562 15.89 17.6153 15.8075 17.2928" fill="white"/>
</mask>
<g mask="url(#mask0_82_21096)">
<rect width="20" height="20" fill="#04C755"/>
</g>
</svg>
