<svg width="14" height="14" viewBox="0 0 14 14" fill="none" xmlns="http://www.w3.org/2000/svg">
<path fill-rule="evenodd" clip-rule="evenodd" d="M12.6483 6.02353C12.6441 6.0328 12.6398 6.04207 12.6359 6.0515C12.6319 6.06127 12.6287 6.07146 12.6256 6.08163C12.6205 6.09817 12.6154 6.11463 12.6067 6.12908C12.5895 6.15768 12.5669 6.18169 12.5443 6.20577C12.5378 6.21264 12.5314 6.21951 12.5251 6.2265C12.518 6.2338 12.5117 6.24181 12.5055 6.24982C12.4968 6.26099 12.4881 6.27215 12.4772 6.28133C12.4445 6.30801 12.4068 6.32656 12.3692 6.34504C12.3665 6.34636 12.3638 6.34768 12.3611 6.349C12.3532 6.35286 12.3456 6.35771 12.3381 6.36257C12.3273 6.36947 12.3165 6.37639 12.3046 6.3805C12.2416 6.40383 12.1745 6.41667 12.1051 6.41667C12.0736 6.41667 12.0409 6.41433 12.0088 6.4085L9.52964 5.99725C9.21172 5.94475 8.99705 5.64433 9.04955 5.32642C9.10205 5.00908 9.40189 4.7915 9.72039 4.84692L10.6794 5.00558C9.95314 3.73042 8.56655 2.91667 7.04055 2.91667C5.31447 2.91667 3.79372 3.91883 3.16547 5.46875C3.07389 5.69625 2.85514 5.83333 2.62472 5.83333C2.5518 5.83333 2.47772 5.81992 2.40597 5.79075C2.1073 5.67 1.96322 5.32992 2.08455 5.03125C2.89189 3.038 4.8373 1.75 7.04055 1.75C9.03089 1.75 10.8398 2.84083 11.7527 4.543L11.968 3.39208C12.0275 3.07592 12.3331 2.8665 12.6487 2.92717C12.9655 2.98608 13.1743 3.29117 13.1148 3.60792L12.6779 5.94125C12.6723 5.971 12.6603 5.99725 12.6483 6.02353ZM10.8345 8.53133C10.9552 8.23208 11.2959 8.08858 11.594 8.20933C11.8926 8.33008 12.0367 8.67016 11.9154 8.96883C11.1081 10.9621 9.16265 12.2501 6.9594 12.2501C4.96906 12.2501 3.16015 11.1592 2.24723 9.45708L2.0314 10.6074C1.97948 10.888 1.73448 11.0834 1.45856 11.0834C1.42298 11.0834 1.38681 11.0799 1.35065 11.0729C1.0339 11.014 0.825647 10.7089 0.885147 10.3922L1.32206 8.05883C1.3265 8.03591 1.33632 8.01558 1.34618 7.99515C1.35189 7.98333 1.35761 7.97148 1.36231 7.95908C1.36693 7.94745 1.37095 7.93542 1.37499 7.92337C1.38371 7.89732 1.39247 7.87116 1.40723 7.84883C1.41584 7.83555 1.4271 7.82493 1.43842 7.81424C1.44551 7.80754 1.45263 7.80082 1.45915 7.79341C1.46428 7.78746 1.46936 7.78147 1.47444 7.77549C1.5022 7.74276 1.52971 7.71033 1.56473 7.68666C1.56817 7.68416 1.57228 7.68266 1.57634 7.68118C1.57986 7.6799 1.58334 7.67864 1.58631 7.67674C1.6429 7.63999 1.70356 7.61141 1.77065 7.59683C1.77473 7.59588 1.77899 7.59613 1.78323 7.59637C1.78686 7.59657 1.79048 7.59678 1.79398 7.59624C1.85815 7.58574 1.9229 7.57933 1.99115 7.59099L4.47031 8.00283C4.78823 8.05474 5.0029 8.35574 4.9504 8.67366C4.90315 8.95891 4.65581 9.16133 4.37523 9.16133C4.34373 9.16133 4.31165 9.15899 4.27956 9.15316L3.32056 8.99449C4.04681 10.2697 5.4334 11.0834 6.9594 11.0834C8.68548 11.0834 10.2062 10.0812 10.8345 8.53133Z" fill="#8F9BB3"/>
<path d="M12.6359 6.0515L12.4976 5.99348L12.4971 5.99471L12.6359 6.0515ZM12.6483 6.02353L12.7848 6.08582V6.08582L12.6483 6.02353ZM12.6256 6.08163L12.4823 6.03732L12.4823 6.03733L12.6256 6.08163ZM12.6067 6.12908L12.7352 6.20656L12.7353 6.20626L12.6067 6.12908ZM12.5443 6.20577L12.435 6.10308V6.10308L12.5443 6.20577ZM12.5251 6.2265L12.633 6.33081L12.6361 6.3273L12.5251 6.2265ZM12.5055 6.24982L12.6238 6.34203L12.6238 6.34203L12.5055 6.24982ZM12.4772 6.28133L12.5721 6.39753L12.5739 6.39598L12.4772 6.28133ZM12.3692 6.34504L12.4353 6.47967L12.4353 6.47967L12.3692 6.34504ZM12.3611 6.349L12.4266 6.48397L12.4274 6.48355L12.3611 6.349ZM12.3381 6.36257L12.257 6.23635L12.257 6.23635L12.3381 6.36257ZM12.3046 6.3805L12.2559 6.23857L12.2525 6.23984L12.3046 6.3805ZM12.0088 6.4085L12.0356 6.2609L12.0333 6.26052L12.0088 6.4085ZM9.52964 5.99725L9.55418 5.84927L9.55408 5.84925L9.52964 5.99725ZM9.04955 5.32642L8.90156 5.30193L8.90156 5.30198L9.04955 5.32642ZM9.72039 4.84692L9.69467 4.9947L9.6959 4.9949L9.72039 4.84692ZM10.6794 5.00558L10.6549 5.15357L10.9656 5.20497L10.8097 4.93135L10.6794 5.00558ZM3.16547 5.46875L3.02645 5.4124L3.02632 5.41273L3.16547 5.46875ZM2.40597 5.79075L2.46246 5.65179L2.46219 5.65169L2.40597 5.79075ZM2.08455 5.03125L2.22352 5.08771L2.22358 5.08756L2.08455 5.03125ZM11.7527 4.543L11.6205 4.6139L11.8219 4.98927L11.9002 4.57058L11.7527 4.543ZM11.968 3.39208L11.8206 3.36434L11.8205 3.36451L11.968 3.39208ZM12.6487 2.92717L12.6204 3.07447L12.6213 3.07464L12.6487 2.92717ZM13.1148 3.60792L12.9674 3.58022L12.9674 3.58031L13.1148 3.60792ZM12.6779 5.94125L12.8253 5.96903L12.8253 5.96886L12.6779 5.94125ZM11.594 8.20933L11.5377 8.34835L11.5378 8.34839L11.594 8.20933ZM10.8345 8.53133L10.9735 8.58767L10.9736 8.58745L10.8345 8.53133ZM11.9154 8.96883L11.7764 8.91237L11.7764 8.91251L11.9154 8.96883ZM2.24723 9.45708L2.37942 9.38618L2.17828 9.01115L2.0998 9.42941L2.24723 9.45708ZM2.0314 10.6074L1.88397 10.5797L1.8839 10.5801L2.0314 10.6074ZM1.35065 11.0729L1.37915 10.9256L1.37808 10.9254L1.35065 11.0729ZM0.885147 10.3922L1.03257 10.4199L1.03258 10.4198L0.885147 10.3922ZM1.32206 8.05883L1.17479 8.03032L1.17463 8.03122L1.32206 8.05883ZM1.34618 7.99515L1.2111 7.92993L1.2111 7.92993L1.34618 7.99515ZM1.36231 7.95908L1.22287 7.90374L1.22206 7.90588L1.36231 7.95908ZM1.37499 7.92337L1.23275 7.87574L1.23275 7.87574L1.37499 7.92337ZM1.40723 7.84883L1.53239 7.93152L1.53307 7.93045L1.40723 7.84883ZM1.43842 7.81424L1.54139 7.92332L1.54139 7.92331L1.43842 7.81424ZM1.45915 7.79341L1.57183 7.89243L1.57267 7.89145L1.45915 7.79341ZM1.47444 7.77549L1.36005 7.67846H1.36005L1.47444 7.77549ZM1.56473 7.68666L1.64879 7.811L1.65295 7.80797L1.56473 7.68666ZM1.57634 7.68118L1.62764 7.82214L1.62764 7.82214L1.57634 7.68118ZM1.58631 7.67674L1.66685 7.80329L1.66802 7.80254L1.58631 7.67674ZM1.77065 7.59683L1.80251 7.74341L1.80437 7.74299L1.77065 7.59683ZM1.78323 7.59637L1.77469 7.74612H1.77469L1.78323 7.59637ZM1.79398 7.59624L1.8168 7.7445L1.8182 7.74427L1.79398 7.59624ZM1.99115 7.59099L1.96587 7.73885L1.96657 7.73896L1.99115 7.59099ZM4.47031 8.00283L4.44573 8.1508L4.44614 8.15086L4.47031 8.00283ZM4.9504 8.67366L5.09838 8.69817L5.09839 8.6981L4.9504 8.67366ZM4.27956 9.15316L4.3064 9.00556L4.30405 9.00517L4.27956 9.15316ZM3.32056 8.99449L3.34505 8.8465L3.03438 8.7951L3.19022 9.06873L3.32056 8.99449ZM12.7742 6.10951C12.7771 6.10259 12.7804 6.09544 12.7848 6.08582L12.5118 5.96124C12.5078 5.97016 12.5026 5.98155 12.4976 5.99349L12.7742 6.10951ZM12.7689 6.12594C12.7724 6.11467 12.7737 6.11088 12.7747 6.10829L12.4971 5.99471C12.4901 6.01166 12.4851 6.02826 12.4823 6.03732L12.7689 6.12594ZM12.7353 6.20626C12.755 6.17357 12.7648 6.13916 12.7689 6.12593L12.4823 6.03733C12.4795 6.04634 12.4782 6.05033 12.477 6.05348C12.476 6.05616 12.4763 6.05495 12.4781 6.05191L12.7353 6.20626ZM12.6536 6.30847C12.6745 6.28626 12.7083 6.25101 12.7352 6.20656L12.4783 6.05161C12.4706 6.06435 12.4594 6.07711 12.435 6.10308L12.6536 6.30847ZM12.6361 6.3273C12.6415 6.32142 12.647 6.31549 12.6536 6.30847L12.435 6.10308C12.4287 6.10979 12.4213 6.1176 12.414 6.1257L12.6361 6.3273ZM12.6238 6.34203C12.6271 6.33777 12.629 6.33534 12.6308 6.33322C12.6324 6.33128 12.633 6.33066 12.6329 6.33075L12.4172 6.12224C12.4037 6.13624 12.3926 6.15065 12.3872 6.1576L12.6238 6.34203ZM12.5739 6.39598C12.5988 6.37504 12.6167 6.35114 12.6238 6.34203L12.3872 6.1576C12.3824 6.16371 12.3805 6.16619 12.3788 6.16808C12.3775 6.1696 12.3782 6.16863 12.3805 6.16669L12.5739 6.39598ZM12.4353 6.47967C12.4703 6.46248 12.5239 6.43687 12.5721 6.39751L12.3823 6.16515C12.3652 6.17916 12.3433 6.19065 12.303 6.21042L12.4353 6.47967ZM12.4274 6.48355C12.43 6.48228 12.4326 6.481 12.4353 6.47967L12.303 6.21041C12.3004 6.21173 12.2976 6.21308 12.2948 6.21445L12.4274 6.48355ZM12.4191 6.48879C12.4232 6.48615 12.4251 6.48493 12.4268 6.48395C12.4282 6.4831 12.4279 6.48332 12.4266 6.48397L12.2957 6.21403C12.2783 6.22246 12.2632 6.23237 12.257 6.23635L12.4191 6.48879ZM12.3532 6.52239C12.3852 6.5114 12.4111 6.49391 12.4191 6.48878L12.257 6.23635C12.251 6.24022 12.2493 6.24122 12.2484 6.24177C12.2478 6.24207 12.2507 6.2404 12.2559 6.23861L12.3532 6.52239ZM12.1051 6.56667C12.1931 6.56667 12.2778 6.55036 12.3567 6.52116L12.2525 6.23984C12.2053 6.25731 12.1558 6.26667 12.1051 6.26667V6.56667ZM11.982 6.55608C12.0245 6.56382 12.0664 6.56667 12.1051 6.56667V6.26667C12.0807 6.26667 12.0572 6.26485 12.0356 6.26092L11.982 6.55608ZM9.50509 6.14523L11.9843 6.55648L12.0333 6.26052L9.55418 5.84927L9.50509 6.14523ZM8.90156 5.30198C8.8356 5.7014 9.10532 6.07921 9.5052 6.14525L9.55408 5.84925C9.31812 5.81029 9.15851 5.58726 9.19755 5.35086L8.90156 5.30198ZM9.7461 4.69914C9.34396 4.62917 8.96741 4.90394 8.90156 5.30193L9.19754 5.3509C9.2367 5.11423 9.45981 4.95383 9.69467 4.9947L9.7461 4.69914ZM10.7039 4.85759L9.74487 4.69893L9.6959 4.9949L10.6549 5.15357L10.7039 4.85759ZM7.04055 3.06667C8.51329 3.06667 9.84979 3.85204 10.549 5.07982L10.8097 4.93135C10.0565 3.60879 8.61982 2.76667 7.04055 2.76667V3.06667ZM3.30448 5.5251C3.90885 4.03409 5.37303 3.06667 7.04055 3.06667V2.76667C5.25591 2.76667 3.67858 3.80357 3.02646 5.4124L3.30448 5.5251ZM2.62472 5.98333C2.91385 5.98333 3.18925 5.81134 3.30462 5.52477L3.02632 5.41273C2.95852 5.58116 2.79643 5.68333 2.62472 5.68333V5.98333ZM2.34948 5.92971C2.43994 5.96648 2.53328 5.98333 2.62472 5.98333V5.68333C2.57032 5.68333 2.5155 5.67336 2.46246 5.65179L2.34948 5.92971ZM1.94558 4.97479C1.79302 5.35033 1.97421 5.77799 2.34975 5.92981L2.46219 5.65169C2.24039 5.56201 2.13342 5.3095 2.22352 5.08771L1.94558 4.97479ZM7.04055 1.6C4.77818 1.6 2.77653 2.92324 1.94552 4.97494L2.22358 5.08756C3.00724 3.15275 4.89642 1.9 7.04055 1.9V1.6ZM11.8849 4.4721C10.9456 2.7208 9.08567 1.6 7.04055 1.6V1.9C8.9761 1.9 10.734 2.96087 11.6205 4.6139L11.8849 4.4721ZM11.8205 3.36451L11.6053 4.51542L11.9002 4.57058L12.1154 3.41966L11.8205 3.36451ZM12.677 2.77986C12.2793 2.7034 11.8953 2.96715 11.8206 3.36434L12.1154 3.41982C12.1596 3.18468 12.387 3.0296 12.6204 3.07447L12.677 2.77986ZM13.2622 3.63561C13.337 3.23742 13.0745 2.8538 12.6761 2.7797L12.6213 3.07464C12.8564 3.11837 13.0116 3.34492 12.9674 3.58022L13.2622 3.63561ZM12.8253 5.96886L13.2622 3.63552L12.9674 3.58031L12.5304 5.91364L12.8253 5.96886ZM12.7848 6.08582C12.7957 6.06182 12.8158 6.01948 12.8253 5.96903L12.5305 5.91347C12.5288 5.92253 12.5249 5.93269 12.5118 5.96124L12.7848 6.08582ZM11.6503 8.0703C11.2756 7.91851 10.8473 8.09881 10.6954 8.4752L10.9736 8.58745C11.0632 8.36534 11.3162 8.25864 11.5377 8.34835L11.6503 8.0703ZM12.0544 9.02528C12.2069 8.64974 12.0257 8.22209 11.6502 8.07026L11.5378 8.34839C11.7596 8.43806 11.8665 8.69057 11.7764 8.91237L12.0544 9.02528ZM6.9594 12.4001C9.22176 12.4001 11.2234 11.0768 12.0544 9.02514L11.7764 8.91251C10.9927 10.8473 9.10353 12.1001 6.9594 12.1001V12.4001ZM2.11504 9.52797C3.05431 11.2793 4.91428 12.4001 6.9594 12.4001V12.1001C5.02385 12.1001 3.26598 11.0392 2.37942 9.38618L2.11504 9.52797ZM2.17882 10.6351L2.39466 9.48474L2.0998 9.42941L1.88397 10.5797L2.17882 10.6351ZM1.45856 11.2334C1.80509 11.2334 2.11351 10.9881 2.17889 10.6347L1.8839 10.5801C1.84545 10.7879 1.66387 10.9334 1.45856 10.9334V11.2334ZM1.32214 11.2202C1.36745 11.2289 1.41316 11.2334 1.45856 11.2334V10.9334C1.4328 10.9334 1.40618 10.9309 1.37915 10.9256L1.32214 11.2202ZM0.737725 10.3645C0.662969 10.7624 0.924616 11.1462 1.32322 11.2204L1.37808 10.9254C1.14318 10.8817 0.988325 10.6554 1.03257 10.4199L0.737725 10.3645ZM1.17463 8.03122L0.737709 10.3646L1.03258 10.4198L1.4695 8.08643L1.17463 8.03122ZM1.2111 7.92993C1.20252 7.94771 1.18353 7.98521 1.1748 8.03032L1.46933 8.08733C1.4692 8.08801 1.46935 8.08673 1.47117 8.08224C1.47325 8.07708 1.47597 8.07133 1.48126 8.06037L1.2111 7.92993ZM1.22206 7.90588C1.22007 7.91115 1.21727 7.91716 1.2111 7.92993L1.48126 8.06037C1.48651 8.0495 1.49515 8.0318 1.50256 8.01227L1.22206 7.90588ZM1.23275 7.87574C1.22848 7.88849 1.22573 7.89659 1.22289 7.90375L1.50174 8.0144C1.50812 7.99832 1.51342 7.98236 1.51723 7.971L1.23275 7.87574ZM1.28208 7.76614C1.25459 7.80774 1.24025 7.85334 1.23275 7.87574L1.51723 7.971C1.52718 7.94129 1.53035 7.93458 1.53238 7.93151L1.28208 7.76614ZM1.33546 7.70516C1.3262 7.71389 1.30138 7.73638 1.28139 7.7672L1.53307 7.93045C1.53111 7.93348 1.5299 7.93458 1.53117 7.93323C1.53285 7.93143 1.53517 7.92919 1.54139 7.92332L1.33546 7.70516ZM1.34647 7.69439C1.34534 7.69568 1.34337 7.69769 1.33545 7.70516L1.54139 7.92331C1.54766 7.91739 1.55993 7.90596 1.57182 7.89243L1.34647 7.69439ZM1.36005 7.67846C1.35491 7.68452 1.35025 7.69 1.34562 7.69537L1.57267 7.89145C1.57831 7.88492 1.58382 7.87842 1.58882 7.87253L1.36005 7.67846ZM1.48072 7.56239C1.42575 7.59955 1.38539 7.64859 1.36005 7.67846L1.58882 7.87253C1.61901 7.83694 1.63367 7.82111 1.64874 7.81093L1.48072 7.56239ZM1.52503 7.54023C1.52482 7.54031 1.49998 7.54828 1.47651 7.56535L1.65295 7.80797C1.64339 7.81493 1.63514 7.81887 1.63111 7.82066C1.6276 7.82222 1.62478 7.82318 1.62764 7.82214L1.52503 7.54023ZM1.50578 7.55019C1.5136 7.54522 1.52004 7.54234 1.52294 7.54111C1.52548 7.54003 1.52746 7.53935 1.52503 7.54023L1.62764 7.82214C1.62793 7.82203 1.64756 7.81556 1.66685 7.80329L1.50578 7.55019ZM1.73878 7.45025C1.64988 7.46957 1.57246 7.50688 1.50461 7.55095L1.66802 7.80254C1.71333 7.77311 1.75724 7.75324 1.80251 7.7434L1.73878 7.45025ZM1.79176 7.44661C1.79154 7.4466 1.76545 7.44408 1.73692 7.45066L1.80437 7.74299C1.79272 7.74567 1.78344 7.74608 1.7788 7.74614C1.77479 7.74619 1.77166 7.74595 1.77469 7.74612L1.79176 7.44661ZM1.77116 7.44799C1.77974 7.44667 1.78639 7.44657 1.78951 7.44659C1.79221 7.4466 1.79425 7.44675 1.79176 7.44661L1.77469 7.74612C1.77531 7.74616 1.795 7.74785 1.8168 7.7445L1.77116 7.44799ZM2.01642 7.44314C1.92357 7.42726 1.83932 7.43683 1.76976 7.44821L1.8182 7.74427C1.87697 7.73466 1.92222 7.73139 1.96587 7.73885L2.01642 7.44314ZM4.49489 7.85485L2.01573 7.44302L1.96657 7.73896L4.44573 8.1508L4.49489 7.85485ZM5.09839 8.6981C5.16432 8.2989 4.89482 7.92016 4.49449 7.85479L4.44614 8.15086C4.68164 8.18932 4.84148 8.41259 4.8024 8.64922L5.09839 8.6981ZM4.37523 9.31133C4.72782 9.31133 5.03891 9.05717 5.09838 8.69817L4.80241 8.64915C4.76738 8.86065 4.58381 9.01133 4.37523 9.01133V9.31133ZM4.25273 9.30074C4.29516 9.30845 4.33639 9.31133 4.37523 9.31133V9.01133C4.35107 9.01133 4.32813 9.00953 4.3064 9.00558L4.25273 9.30074ZM3.29608 9.14248L4.25508 9.30115L4.30405 9.00517L3.34505 8.8465L3.29608 9.14248ZM6.9594 10.9334C5.48666 10.9334 4.15016 10.148 3.45091 8.92026L3.19022 9.06873C3.94346 10.3913 5.38013 11.2334 6.9594 11.2334V10.9334ZM10.6955 8.47498C10.0911 9.96598 8.62692 10.9334 6.9594 10.9334V11.2334C8.74404 11.2334 10.3214 10.1965 10.9735 8.58767L10.6955 8.47498Z" fill="#8F9BB3"/>
<mask id="mask0_5_6206" style="mask-type:luminance" maskUnits="userSpaceOnUse" x="0" y="1" width="14" height="12">
<path fill-rule="evenodd" clip-rule="evenodd" d="M12.6483 6.02353C12.6441 6.0328 12.6398 6.04207 12.6359 6.0515C12.6319 6.06127 12.6287 6.07146 12.6256 6.08163C12.6205 6.09817 12.6154 6.11463 12.6067 6.12908C12.5895 6.15768 12.5669 6.18169 12.5443 6.20577C12.5378 6.21264 12.5314 6.21951 12.5251 6.2265C12.518 6.2338 12.5117 6.24181 12.5055 6.24982C12.4968 6.26099 12.4881 6.27215 12.4772 6.28133C12.4445 6.30801 12.4068 6.32656 12.3692 6.34504C12.3665 6.34636 12.3638 6.34768 12.3611 6.349C12.3532 6.35286 12.3456 6.35771 12.3381 6.36257C12.3273 6.36947 12.3165 6.37639 12.3046 6.3805C12.2416 6.40383 12.1745 6.41667 12.1051 6.41667C12.0736 6.41667 12.0409 6.41433 12.0088 6.4085L9.52964 5.99725C9.21172 5.94475 8.99705 5.64433 9.04955 5.32642C9.10205 5.00908 9.40189 4.7915 9.72039 4.84692L10.6794 5.00558C9.95314 3.73042 8.56655 2.91667 7.04055 2.91667C5.31447 2.91667 3.79372 3.91883 3.16547 5.46875C3.07389 5.69625 2.85514 5.83333 2.62472 5.83333C2.5518 5.83333 2.47772 5.81992 2.40597 5.79075C2.1073 5.67 1.96322 5.32992 2.08455 5.03125C2.89189 3.038 4.8373 1.75 7.04055 1.75C9.03089 1.75 10.8398 2.84083 11.7527 4.543L11.968 3.39208C12.0275 3.07592 12.3331 2.8665 12.6487 2.92717C12.9655 2.98608 13.1743 3.29117 13.1148 3.60792L12.6779 5.94125C12.6723 5.971 12.6603 5.99725 12.6483 6.02353ZM10.8345 8.53133C10.9552 8.23208 11.2959 8.08858 11.594 8.20933C11.8926 8.33008 12.0367 8.67016 11.9154 8.96883C11.1081 10.9621 9.16265 12.2501 6.9594 12.2501C4.96906 12.2501 3.16015 11.1592 2.24723 9.45708L2.0314 10.6074C1.97948 10.888 1.73448 11.0834 1.45856 11.0834C1.42298 11.0834 1.38681 11.0799 1.35065 11.0729C1.0339 11.014 0.825647 10.7089 0.885147 10.3922L1.32206 8.05883C1.3265 8.03591 1.33632 8.01558 1.34618 7.99515C1.35189 7.98333 1.35761 7.97148 1.36231 7.95908C1.36693 7.94745 1.37095 7.93542 1.37499 7.92337C1.38371 7.89732 1.39247 7.87116 1.40723 7.84883C1.41584 7.83555 1.4271 7.82493 1.43842 7.81424C1.44551 7.80754 1.45263 7.80082 1.45915 7.79341C1.46428 7.78746 1.46936 7.78147 1.47444 7.77549C1.5022 7.74276 1.52971 7.71033 1.56473 7.68666C1.56817 7.68416 1.57228 7.68266 1.57634 7.68118C1.57986 7.6799 1.58334 7.67864 1.58631 7.67674C1.6429 7.63999 1.70356 7.61141 1.77065 7.59683C1.77473 7.59588 1.77899 7.59613 1.78323 7.59637C1.78686 7.59657 1.79048 7.59678 1.79398 7.59624C1.85815 7.58574 1.9229 7.57933 1.99115 7.59099L4.47031 8.00283C4.78823 8.05474 5.0029 8.35574 4.9504 8.67366C4.90315 8.95891 4.65581 9.16133 4.37523 9.16133C4.34373 9.16133 4.31165 9.15899 4.27956 9.15316L3.32056 8.99449C4.04681 10.2697 5.4334 11.0834 6.9594 11.0834C8.68548 11.0834 10.2062 10.0812 10.8345 8.53133Z" fill="white"/>
</mask>
<g mask="url(#mask0_5_6206)">
<rect width="14" height="14" stroke="#8F9BB3" stroke-width="0.933333"/>
<rect width="14" height="14" fill="#8F9BB3"/>
</g>
</svg>
