<svg width="24" height="24" viewBox="0 0 24 24" fill="none" xmlns="http://www.w3.org/2000/svg">
<path fill-rule="evenodd" clip-rule="evenodd" d="M12 22C6.47715 22 2 17.5228 2 12C2 6.47715 6.47715 2 12 2C17.5228 2 22 6.47715 22 12C22 17.5228 17.5228 22 12 22ZM11 8C11 7.44772 11.4477 7 12 7C12.5523 7 13 7.44772 13 8V10.256C13 10.4119 12.9865 10.5674 12.9597 10.721L12.5559 13.0328C12.5087 13.3029 12.2742 13.5 12 13.5C11.7258 13.5 11.4913 13.3029 11.4441 13.0328L11.0403 10.721C11.0135 10.5674 11 10.4119 11 10.256V8ZM10.75 16C10.75 15.3096 11.3096 14.75 12 14.75C12.6904 14.75 13.25 15.3096 13.25 16C13.25 16.6904 12.6904 17.25 12 17.25C11.3096 17.25 10.75 16.6904 10.75 16Z" fill="#FA4E45"/>
</svg>
